
<svg xmlns="http://www.w3.org/2000/svg" viewBox="0 0 248.35 415.18"><defs><style>.cls-1{fill:#8a8c8e;}</style></defs><title>Asset 2</title><g id="Layer_2" data-name="Layer 2"><g id="Layer_1-2" data-name="Layer 1"><path class="cls-1" d="M247.45,305c-3-16.09-14-29.45-26.79-39.14-13.5-9.57-30.16-13.1-46.28-15.29-24.63-3.07-49.6-2.46-74.19.64-10.49.5-21.33,2.75-31.56-.68-7.93-2.63-15.64-7.65-19.27-15.43-4-8.38-3.5-18-2.55-27,6.24,3.84,13.33,6,20.39,7.84a132.08,132.08,0,0,0,50.58,1.54,100,100,0,0,0,56.11-29.68,77,77,0,0,0,19.32-38.59c3.35-18.11,2.06-37.43-5.67-54.3a83.11,83.11,0,0,0-23-30.06c-10.37-10.12-24.37-15.51-38.27-18.75-23.87-5-49.6-4.1-72.09,6C37.86,59.56,23,71,13,86,1.58,103-2,124.39,1,144.44,3.74,162.9,13.4,179.8,26.33,193c-10,18.09-14.07,39.92-9,60.15,4.17,14.58,18.33,22.67,31.11,28.8-13.94,12.5-28.87,24.86-37.75,41.69-8.25,15.59-8.23,35.05-.61,50.87,6,12.37,16.8,21.78,28.94,27.86,21.82,11.27,47,13.74,71.2,12.46,18.4-.7,36.35-5.28,53.83-10.77a137.17,137.17,0,0,0,46.27-23.82C220.77,371.85,231,362.61,238,351,246.45,337.45,250.22,320.82,247.45,305ZM46.16,118.26c.39-12.35,2.19-25,8-36.07A37.8,37.8,0,0,1,78.16,63a59.53,59.53,0,0,1,37.63,2.73c13.1,5.6,22.24,17.79,27,30.91,6.22,17.39,6.92,36.28,5.34,54.52-1.56,14.69-5.91,30.41-17.64,40.29s-28,11.06-42.48,8.8c-11.86-1.7-23.23-8-29.83-18.18a96.72,96.72,0,0,1,22.41-15.47c8.15-4.37,17.51-6.06,26.68-6.29a25.69,25.69,0,0,1,17.61,6.29c3.69,2.78,6.16,7.09,10.39,9.13,2.72.43,2.18-2.69,1.61-4.34-2.15-5.94-5.86-11.17-9.56-16.23-1.78-2.17-3.38-4.71-5.88-6.11-4.74-1.49-9.83-1-14.69-.51-19.42,2.42-38.07,9.43-55,19C46.38,151.71,46,134.8,46.16,118.26Zm167,227.25a45.63,45.63,0,0,1-10.32,15.27c-1.52,1.46-3.09,2.9-4.68,4.29-10.33,9-22.14,16.51-35.29,20.62A193.21,193.21,0,0,1,104.21,394c-15.95-.71-31.43-6.32-45-14.64-9.68-5.91-18.1-14.55-21.93-25.4a49.81,49.81,0,0,1,2.07-37.6c4.82-10.62,12.34-19.59,19.6-28.61.81-1,1.6-2,2.39-3,19.89,2.62,39.93-.83,59.88-.68,13.4.08,26.83.49,40.11,2.38,8.94,1.37,18.09,3.09,26,7.58a127.24,127.24,0,0,1,17.68,12.35c5,4.19,9.16,9.76,10.45,16.3a34.07,34.07,0,0,1,.76,6.6,40.2,40.2,0,0,1-3.12,16.2Z"/><path class="cls-1" d="M70.06,286.64a4.89,4.89,0,0,1,1.32.18A4.89,4.89,0,0,0,70.06,286.64Z"/><path class="cls-1" d="M143.71,0c4.58,8.25,7.19,17.92,13.91,24.89,1.66,2,4.63,1.83,6.58.33,7-4.81,12-12,17.12-18.63-.44,8.55-1.37,17.27.51,25.72.55,3.56,3.72,6.62,7.47,6.26,9-.3,17.42-3.77,25.76-6.77-4.34,5.86-8.83,11.71-11.9,18.36-.9,2.19-1.93,4.55-1.47,7,1,2.57,4,3.4,6.28,4.35,8,2.56,16.37,3.46,24.68,4.33-12.4,4.6-24.91,9-37.4,13.29-3.63-5.5-6.77-11.62-11.34-16.57C173.43,49.94,158.06,42.28,142.2,39.2,142.57,26.13,143.2,13.06,143.71,0Z"/></g></g></svg>